<mxfile host="app.diagrams.net" agent="Mozilla/5.0 (Windows NT 10.0; Win64; x64) AppleWebKit/537.36 (KHTML, like Gecko) Chrome/132.0.0.0 Safari/537.36 OPR/117.0.0.0" version="26.0.16">
  <diagram name="Page-1" id="j9BgTlOJMTmWi7VszRmp">
    <mxGraphModel dx="1747" dy="818" grid="1" gridSize="10" guides="1" tooltips="1" connect="1" arrows="1" fold="1" page="1" pageScale="1" pageWidth="4681" pageHeight="3300" math="0" shadow="0">
      <root>
        <mxCell id="0" />
        <mxCell id="1" parent="0" />
        <mxCell id="wU6vpZIucXiBU-MfQ4RZ-1" value="" style="html=1;whiteSpace=wrap;" vertex="1" parent="1">
          <mxGeometry x="1300" y="300" width="1020" height="1370" as="geometry" />
        </mxCell>
        <mxCell id="wU6vpZIucXiBU-MfQ4RZ-2" value="&lt;b&gt;&lt;font style=&quot;font-size: 24px;&quot;&gt;Systeme de gestion des prescriptions&lt;/font&gt;&lt;/b&gt;" style="text;html=1;align=center;verticalAlign=middle;whiteSpace=wrap;rounded=0;" vertex="1" parent="1">
          <mxGeometry x="1590" y="350" width="450" height="30" as="geometry" />
        </mxCell>
        <mxCell id="wU6vpZIucXiBU-MfQ4RZ-3" value="&lt;b&gt;Medecin&lt;/b&gt;" style="shape=umlActor;verticalLabelPosition=bottom;verticalAlign=top;html=1;outlineConnect=0;fillColor=#d5e8d4;strokeColor=#82b366;" vertex="1" parent="1">
          <mxGeometry x="1170" y="625" width="30" height="60" as="geometry" />
        </mxCell>
        <mxCell id="wU6vpZIucXiBU-MfQ4RZ-4" value="&lt;b&gt;Pharmacien&lt;/b&gt;" style="shape=umlActor;verticalLabelPosition=bottom;verticalAlign=top;html=1;outlineConnect=0;fillColor=#f8cecc;strokeColor=#b85450;" vertex="1" parent="1">
          <mxGeometry x="2370" y="1000" width="30" height="60" as="geometry" />
        </mxCell>
        <mxCell id="wU6vpZIucXiBU-MfQ4RZ-5" value="&lt;b&gt;Patient&lt;/b&gt;" style="shape=umlActor;verticalLabelPosition=bottom;verticalAlign=top;html=1;outlineConnect=0;fillColor=#dae8fc;strokeColor=#6c8ebf;gradientColor=#7ea6e0;" vertex="1" parent="1">
          <mxGeometry x="2430" y="707.5" width="30" height="60" as="geometry" />
        </mxCell>
        <mxCell id="wU6vpZIucXiBU-MfQ4RZ-6" value="&lt;font style=&quot;font-size: 18px;&quot;&gt;Gerer des prescriptions&lt;/font&gt;" style="ellipse;whiteSpace=wrap;html=1;align=center;fillColor=#dae8fc;gradientColor=#7ea6e0;strokeColor=#6c8ebf;" vertex="1" parent="1">
          <mxGeometry x="1370" y="640" width="230" height="50" as="geometry" />
        </mxCell>
        <mxCell id="wU6vpZIucXiBU-MfQ4RZ-7" value="&lt;table&gt;&lt;tbody&gt;&lt;tr&gt;&lt;td&gt;&lt;font style=&quot;font-size: 16px;&quot;&gt;Supprimer&lt;/font&gt;&lt;/td&gt;&lt;/tr&gt;&lt;/tbody&gt;&lt;/table&gt;&lt;table&gt;&lt;tbody&gt;&lt;tr&gt;&lt;/tr&gt;&lt;/tbody&gt;&lt;/table&gt;" style="ellipse;whiteSpace=wrap;html=1;align=center;fillColor=#dae8fc;strokeColor=#6c8ebf;" vertex="1" parent="1">
          <mxGeometry x="1900" y="645" width="230" height="40" as="geometry" />
        </mxCell>
        <mxCell id="wU6vpZIucXiBU-MfQ4RZ-8" value="&lt;table&gt;&lt;tbody&gt;&lt;tr&gt;&lt;td&gt;&lt;font style=&quot;font-size: 16px;&quot;&gt;Modifier&amp;nbsp;&lt;/font&gt;&lt;/td&gt;&lt;/tr&gt;&lt;/tbody&gt;&lt;/table&gt;&lt;table&gt;&lt;tbody&gt;&lt;tr&gt;&lt;td&gt;&lt;/td&gt;&lt;/tr&gt;&lt;/tbody&gt;&lt;/table&gt;" style="ellipse;whiteSpace=wrap;html=1;align=center;fillColor=#dae8fc;strokeColor=#6c8ebf;" vertex="1" parent="1">
          <mxGeometry x="1900" y="590" width="230" height="40" as="geometry" />
        </mxCell>
        <mxCell id="wU6vpZIucXiBU-MfQ4RZ-9" value="&lt;table&gt;&lt;tbody&gt;&lt;tr&gt;&lt;td&gt;&lt;font style=&quot;font-size: 17px;&quot;&gt;Créer&lt;/font&gt;&lt;/td&gt;&lt;/tr&gt;&lt;/tbody&gt;&lt;/table&gt;&lt;table&gt;&lt;tbody&gt;&lt;tr&gt;&lt;td&gt;&lt;/td&gt;&lt;/tr&gt;&lt;/tbody&gt;&lt;/table&gt;" style="ellipse;whiteSpace=wrap;html=1;align=center;fillColor=#dae8fc;strokeColor=#6c8ebf;" vertex="1" parent="1">
          <mxGeometry x="1710" y="540" width="230" height="40" as="geometry" />
        </mxCell>
        <mxCell id="wU6vpZIucXiBU-MfQ4RZ-10" value="&lt;table&gt;&lt;tbody&gt;&lt;tr&gt;&lt;td&gt;&lt;font style=&quot;font-size: 16px;&quot;&gt;Renouveler&amp;nbsp;&lt;/font&gt;&lt;/td&gt;&lt;/tr&gt;&lt;/tbody&gt;&lt;/table&gt;&lt;table&gt;&lt;tbody&gt;&lt;tr&gt;&lt;td&gt;&lt;/td&gt;&lt;/tr&gt;&lt;/tbody&gt;&lt;/table&gt;" style="ellipse;whiteSpace=wrap;html=1;align=center;fillColor=#dae8fc;strokeColor=#6c8ebf;" vertex="1" parent="1">
          <mxGeometry x="1480" y="450" width="230" height="40" as="geometry" />
        </mxCell>
        <mxCell id="wU6vpZIucXiBU-MfQ4RZ-11" value="&lt;table&gt;&lt;tbody&gt;&lt;tr&gt;&lt;td&gt;&lt;font style=&quot;font-size: 16px;&quot;&gt;Assigner à une Pharmacie&lt;/font&gt;&lt;/td&gt;&lt;/tr&gt;&lt;/tbody&gt;&lt;/table&gt;&lt;table&gt;&lt;tbody&gt;&lt;tr&gt;&lt;td&gt;&lt;/td&gt;&lt;/tr&gt;&lt;/tbody&gt;&lt;/table&gt;" style="ellipse;whiteSpace=wrap;html=1;align=center;fillColor=#dae8fc;strokeColor=#6c8ebf;" vertex="1" parent="1">
          <mxGeometry x="1920" y="490" width="330" height="40" as="geometry" />
        </mxCell>
        <mxCell id="wU6vpZIucXiBU-MfQ4RZ-12" value="&lt;table&gt;&lt;tbody&gt;&lt;tr&gt;&lt;td&gt;&lt;table&gt;&lt;tbody&gt;&lt;tr&gt;&lt;td&gt;&lt;font style=&quot;font-size: 16px;&quot;&gt;Valider&lt;/font&gt;&lt;/td&gt;&lt;/tr&gt;&lt;/tbody&gt;&lt;/table&gt;&lt;table&gt;&lt;tbody&gt;&lt;tr&gt;&lt;td&gt;&lt;/td&gt;&lt;/tr&gt;&lt;/tbody&gt;&lt;/table&gt;&lt;table&gt;&lt;tbody&gt;&lt;tr&gt;&lt;/tr&gt;&lt;/tbody&gt;&lt;/table&gt;&lt;/td&gt;&lt;/tr&gt;&lt;/tbody&gt;&lt;/table&gt;" style="ellipse;whiteSpace=wrap;html=1;align=center;fillColor=#dae8fc;strokeColor=#6c8ebf;" vertex="1" parent="1">
          <mxGeometry x="1950" y="1172" width="190" height="40" as="geometry" />
        </mxCell>
        <mxCell id="wU6vpZIucXiBU-MfQ4RZ-13" value="&lt;font style=&quot;font-size: 18px;&quot;&gt;Traiter les prescriptions&lt;/font&gt;" style="ellipse;whiteSpace=wrap;html=1;align=center;fillColor=#dae8fc;gradientColor=#7ea6e0;strokeColor=#6c8ebf;" vertex="1" parent="1">
          <mxGeometry x="1940" y="1062" width="230" height="50" as="geometry" />
        </mxCell>
        <mxCell id="wU6vpZIucXiBU-MfQ4RZ-14" value="&lt;table&gt;&lt;tbody&gt;&lt;tr&gt;&lt;td&gt;&lt;table&gt;&lt;tbody&gt;&lt;tr&gt;&lt;td&gt;&lt;font style=&quot;font-size: 16px;&quot;&gt;Proposer un Médicament Équivalent&lt;/font&gt;&lt;/td&gt;&lt;/tr&gt;&lt;/tbody&gt;&lt;/table&gt;&lt;table&gt;&lt;tbody&gt;&lt;tr&gt;&lt;td&gt;&lt;/td&gt;&lt;/tr&gt;&lt;/tbody&gt;&lt;/table&gt;&lt;table&gt;&lt;tbody&gt;&lt;tr&gt;&lt;/tr&gt;&lt;/tbody&gt;&lt;/table&gt;&lt;/td&gt;&lt;/tr&gt;&lt;/tbody&gt;&lt;/table&gt;" style="ellipse;whiteSpace=wrap;html=1;align=center;fillColor=#dae8fc;strokeColor=#6c8ebf;" vertex="1" parent="1">
          <mxGeometry x="1590" y="1230" width="330" height="40" as="geometry" />
        </mxCell>
        <mxCell id="wU6vpZIucXiBU-MfQ4RZ-15" value="&lt;table&gt;&lt;tbody&gt;&lt;tr&gt;&lt;td&gt;&lt;table&gt;&lt;tbody&gt;&lt;tr&gt;&lt;td&gt;&lt;font style=&quot;font-size: 16px;&quot;&gt;Vérifier l’état&amp;nbsp;&lt;/font&gt;&lt;/td&gt;&lt;/tr&gt;&lt;/tbody&gt;&lt;/table&gt;&lt;table&gt;&lt;tbody&gt;&lt;tr&gt;&lt;td&gt;&lt;/td&gt;&lt;/tr&gt;&lt;/tbody&gt;&lt;/table&gt;&lt;table&gt;&lt;tbody&gt;&lt;tr&gt;&lt;/tr&gt;&lt;/tbody&gt;&lt;/table&gt;&lt;/td&gt;&lt;/tr&gt;&lt;/tbody&gt;&lt;/table&gt;" style="ellipse;whiteSpace=wrap;html=1;align=center;fillColor=#dae8fc;strokeColor=#6c8ebf;" vertex="1" parent="1">
          <mxGeometry x="1812.3899999999999" y="700" width="275.22" height="40" as="geometry" />
        </mxCell>
        <mxCell id="wU6vpZIucXiBU-MfQ4RZ-16" value="&lt;table&gt;&lt;tbody&gt;&lt;tr&gt;&lt;td&gt;&lt;table&gt;&lt;tbody&gt;&lt;tr&gt;&lt;td&gt;&lt;span style=&quot;font-size: 16px;&quot;&gt;Rejeter&lt;/span&gt;&lt;/td&gt;&lt;/tr&gt;&lt;/tbody&gt;&lt;/table&gt;&lt;table&gt;&lt;tbody&gt;&lt;tr&gt;&lt;td&gt;&lt;/td&gt;&lt;/tr&gt;&lt;/tbody&gt;&lt;/table&gt;&lt;table&gt;&lt;tbody&gt;&lt;tr&gt;&lt;/tr&gt;&lt;/tbody&gt;&lt;/table&gt;&lt;/td&gt;&lt;/tr&gt;&lt;/tbody&gt;&lt;/table&gt;" style="ellipse;whiteSpace=wrap;html=1;align=center;fillColor=#dae8fc;strokeColor=#6c8ebf;" vertex="1" parent="1">
          <mxGeometry x="1675" y="1100" width="200" height="30" as="geometry" />
        </mxCell>
        <mxCell id="wU6vpZIucXiBU-MfQ4RZ-17" value="&lt;table&gt;&lt;tbody&gt;&lt;tr&gt;&lt;td&gt;&lt;table&gt;&lt;tbody&gt;&lt;tr&gt;&lt;td&gt;&lt;font style=&quot;font-size: 18px;&quot;&gt;Voir historique&amp;nbsp;&lt;/font&gt;&lt;/td&gt;&lt;/tr&gt;&lt;/tbody&gt;&lt;/table&gt;&lt;table&gt;&lt;tbody&gt;&lt;tr&gt;&lt;td&gt;&lt;/td&gt;&lt;/tr&gt;&lt;/tbody&gt;&lt;/table&gt;&lt;table&gt;&lt;tbody&gt;&lt;tr&gt;&lt;/tr&gt;&lt;/tbody&gt;&lt;/table&gt;&lt;/td&gt;&lt;/tr&gt;&lt;/tbody&gt;&lt;/table&gt;" style="ellipse;whiteSpace=wrap;html=1;align=center;fillColor=#dae8fc;strokeColor=#6c8ebf;" vertex="1" parent="1">
          <mxGeometry x="1800" y="750" width="280" height="40" as="geometry" />
        </mxCell>
        <mxCell id="wU6vpZIucXiBU-MfQ4RZ-18" value="" style="edgeStyle=none;html=1;endArrow=block;endFill=0;endSize=12;verticalAlign=bottom;rounded=0;entryX=0.78;entryY=0.087;entryDx=0;entryDy=0;exitX=0;exitY=0.5;exitDx=0;exitDy=0;entryPerimeter=0;" edge="1" parent="1" source="wU6vpZIucXiBU-MfQ4RZ-9" target="wU6vpZIucXiBU-MfQ4RZ-6">
          <mxGeometry width="160" relative="1" as="geometry">
            <mxPoint x="1740" y="770" as="sourcePoint" />
            <mxPoint x="1900" y="770" as="targetPoint" />
          </mxGeometry>
        </mxCell>
        <mxCell id="wU6vpZIucXiBU-MfQ4RZ-19" value="" style="edgeStyle=none;html=1;endArrow=block;endFill=0;endSize=12;verticalAlign=bottom;rounded=0;entryX=1;entryY=0;entryDx=0;entryDy=0;exitX=0;exitY=0.5;exitDx=0;exitDy=0;" edge="1" parent="1" source="wU6vpZIucXiBU-MfQ4RZ-8" target="wU6vpZIucXiBU-MfQ4RZ-6">
          <mxGeometry width="160" relative="1" as="geometry">
            <mxPoint x="1440" y="520" as="sourcePoint" />
            <mxPoint x="1600" y="520" as="targetPoint" />
          </mxGeometry>
        </mxCell>
        <mxCell id="wU6vpZIucXiBU-MfQ4RZ-20" value="" style="edgeStyle=none;html=1;endArrow=block;endFill=0;endSize=12;verticalAlign=bottom;rounded=0;exitX=0;exitY=0.5;exitDx=0;exitDy=0;entryX=0.947;entryY=0.333;entryDx=0;entryDy=0;entryPerimeter=0;" edge="1" parent="1" source="wU6vpZIucXiBU-MfQ4RZ-7" target="wU6vpZIucXiBU-MfQ4RZ-6">
          <mxGeometry width="160" relative="1" as="geometry">
            <mxPoint x="1740" y="770" as="sourcePoint" />
            <mxPoint x="1680" y="725" as="targetPoint" />
          </mxGeometry>
        </mxCell>
        <mxCell id="wU6vpZIucXiBU-MfQ4RZ-21" value="" style="edgeStyle=none;html=1;endArrow=block;endFill=0;endSize=12;verticalAlign=bottom;rounded=0;exitX=0;exitY=0.5;exitDx=0;exitDy=0;" edge="1" parent="1" source="wU6vpZIucXiBU-MfQ4RZ-17" target="wU6vpZIucXiBU-MfQ4RZ-6">
          <mxGeometry width="160" relative="1" as="geometry">
            <mxPoint x="1740" y="750" as="sourcePoint" />
            <mxPoint x="1900" y="750" as="targetPoint" />
          </mxGeometry>
        </mxCell>
        <mxCell id="wU6vpZIucXiBU-MfQ4RZ-22" value="" style="edgeStyle=none;html=1;endArrow=none;verticalAlign=bottom;rounded=0;entryX=0;entryY=0.5;entryDx=0;entryDy=0;" edge="1" parent="1" source="wU6vpZIucXiBU-MfQ4RZ-3" target="wU6vpZIucXiBU-MfQ4RZ-6">
          <mxGeometry width="160" relative="1" as="geometry">
            <mxPoint x="1740" y="860" as="sourcePoint" />
            <mxPoint x="1900" y="860" as="targetPoint" />
          </mxGeometry>
        </mxCell>
        <mxCell id="wU6vpZIucXiBU-MfQ4RZ-23" value="" style="edgeStyle=none;html=1;endArrow=none;verticalAlign=bottom;rounded=0;entryX=1;entryY=0.5;entryDx=0;entryDy=0;" edge="1" parent="1" target="wU6vpZIucXiBU-MfQ4RZ-13">
          <mxGeometry width="160" relative="1" as="geometry">
            <mxPoint x="2350" y="1034.5172413793105" as="sourcePoint" />
            <mxPoint x="2220.0000000000064" y="1039" as="targetPoint" />
          </mxGeometry>
        </mxCell>
        <mxCell id="wU6vpZIucXiBU-MfQ4RZ-24" value="" style="edgeStyle=none;html=1;endArrow=block;endFill=0;endSize=12;verticalAlign=bottom;rounded=0;exitX=0.5;exitY=0;exitDx=0;exitDy=0;entryX=0.5;entryY=1;entryDx=0;entryDy=0;" edge="1" parent="1" source="wU6vpZIucXiBU-MfQ4RZ-12" target="wU6vpZIucXiBU-MfQ4RZ-13">
          <mxGeometry width="160" relative="1" as="geometry">
            <mxPoint x="2005" y="1084" as="sourcePoint" />
            <mxPoint x="2042.179205237106" y="1059.940264920965" as="targetPoint" />
          </mxGeometry>
        </mxCell>
        <mxCell id="wU6vpZIucXiBU-MfQ4RZ-25" value="&amp;lt;&amp;lt;include&amp;gt;&amp;gt;" style="edgeStyle=none;html=1;endArrow=open;verticalAlign=bottom;dashed=1;labelBackgroundColor=none;rounded=0;entryX=0.933;entryY=0.7;entryDx=0;entryDy=0;entryPerimeter=0;exitX=0;exitY=0.5;exitDx=0;exitDy=0;" edge="1" parent="1" source="wU6vpZIucXiBU-MfQ4RZ-15" target="wU6vpZIucXiBU-MfQ4RZ-6">
          <mxGeometry width="160" relative="1" as="geometry">
            <mxPoint x="1754.78" y="849.3199999999999" as="sourcePoint" />
            <mxPoint x="1694.9999999999998" y="750" as="targetPoint" />
          </mxGeometry>
        </mxCell>
        <mxCell id="wU6vpZIucXiBU-MfQ4RZ-26" value="&amp;lt;&amp;lt;extend&amp;gt;&amp;gt;" style="edgeStyle=none;html=1;startArrow=open;endArrow=none;startSize=12;verticalAlign=bottom;dashed=1;labelBackgroundColor=none;rounded=0;exitX=0.542;exitY=0.03;exitDx=0;exitDy=0;exitPerimeter=0;entryX=0.464;entryY=0.962;entryDx=0;entryDy=0;entryPerimeter=0;" edge="1" parent="1" source="wU6vpZIucXiBU-MfQ4RZ-6" target="wU6vpZIucXiBU-MfQ4RZ-10">
          <mxGeometry width="160" relative="1" as="geometry">
            <mxPoint x="1589" y="670" as="sourcePoint" />
            <mxPoint x="1930" y="790" as="targetPoint" />
            <Array as="points" />
          </mxGeometry>
        </mxCell>
        <mxCell id="wU6vpZIucXiBU-MfQ4RZ-27" value="" style="edgeStyle=none;html=1;endArrow=none;verticalAlign=bottom;rounded=0;exitX=0.25;exitY=0.1;exitDx=0;exitDy=0;exitPerimeter=0;" edge="1" parent="1" source="wU6vpZIucXiBU-MfQ4RZ-5">
          <mxGeometry width="160" relative="1" as="geometry">
            <mxPoint x="2370" y="740" as="sourcePoint" />
            <mxPoint x="2080" y="720" as="targetPoint" />
          </mxGeometry>
        </mxCell>
        <mxCell id="wU6vpZIucXiBU-MfQ4RZ-28" value="" style="edgeStyle=none;html=1;endArrow=none;verticalAlign=bottom;rounded=0;" edge="1" parent="1" source="wU6vpZIucXiBU-MfQ4RZ-5">
          <mxGeometry width="160" relative="1" as="geometry">
            <mxPoint x="1800" y="790" as="sourcePoint" />
            <mxPoint x="2080" y="770" as="targetPoint" />
          </mxGeometry>
        </mxCell>
        <mxCell id="wU6vpZIucXiBU-MfQ4RZ-29" value="" style="edgeStyle=none;html=1;endArrow=block;endFill=0;endSize=12;verticalAlign=bottom;rounded=0;exitX=1;exitY=0.5;exitDx=0;exitDy=0;entryX=0;entryY=0.5;entryDx=0;entryDy=0;" edge="1" parent="1" target="wU6vpZIucXiBU-MfQ4RZ-13">
          <mxGeometry width="160" relative="1" as="geometry">
            <mxPoint x="1880" y="1117" as="sourcePoint" />
            <mxPoint x="1980" y="1039" as="targetPoint" />
          </mxGeometry>
        </mxCell>
        <mxCell id="wU6vpZIucXiBU-MfQ4RZ-30" value="&amp;lt;&amp;lt;extend&amp;gt;&amp;gt;" style="edgeStyle=none;html=1;startArrow=open;endArrow=none;startSize=12;verticalAlign=bottom;dashed=1;labelBackgroundColor=none;rounded=0;entryX=0.5;entryY=0;entryDx=0;entryDy=0;exitX=0.5;exitY=1;exitDx=0;exitDy=0;" edge="1" parent="1">
          <mxGeometry width="160" relative="1" as="geometry">
            <mxPoint x="1780" y="1132" as="sourcePoint" />
            <mxPoint x="1790" y="1232" as="targetPoint" />
          </mxGeometry>
        </mxCell>
        <mxCell id="wU6vpZIucXiBU-MfQ4RZ-31" value="&lt;span style=&quot;font-size: 16px;&quot;&gt;Gerer les utilisateurs&lt;/span&gt;" style="ellipse;whiteSpace=wrap;html=1;align=center;fillColor=#dae8fc;strokeColor=#6c8ebf;" vertex="1" parent="1">
          <mxGeometry x="1760" y="1450" width="230" height="40" as="geometry" />
        </mxCell>
        <mxCell id="wU6vpZIucXiBU-MfQ4RZ-32" value="&lt;b&gt;Admin&lt;/b&gt;" style="shape=umlActor;verticalLabelPosition=bottom;verticalAlign=top;html=1;outlineConnect=0;fillColor=#dae8fc;strokeColor=#6c8ebf;" vertex="1" parent="1">
          <mxGeometry x="1160" y="1465" width="40" height="60" as="geometry" />
        </mxCell>
        <mxCell id="wU6vpZIucXiBU-MfQ4RZ-33" value="&lt;span style=&quot;font-size: 16px;&quot;&gt;Gerer les autorisations&lt;/span&gt;" style="ellipse;whiteSpace=wrap;html=1;align=center;fillColor=#dae8fc;strokeColor=#6c8ebf;" vertex="1" parent="1">
          <mxGeometry x="1760" y="1525" width="230" height="40" as="geometry" />
        </mxCell>
        <mxCell id="wU6vpZIucXiBU-MfQ4RZ-34" value="&lt;span style=&quot;font-size: 16px;&quot;&gt;Administration&lt;/span&gt;" style="ellipse;whiteSpace=wrap;html=1;align=center;fillColor=#dae8fc;gradientColor=#7ea6e0;strokeColor=#6c8ebf;" vertex="1" parent="1">
          <mxGeometry x="1370" y="1475" width="230" height="40" as="geometry" />
        </mxCell>
        <mxCell id="wU6vpZIucXiBU-MfQ4RZ-35" value="" style="edgeStyle=none;html=1;endArrow=none;verticalAlign=bottom;rounded=0;entryX=0;entryY=0.5;entryDx=0;entryDy=0;" edge="1" parent="1" source="wU6vpZIucXiBU-MfQ4RZ-32" target="wU6vpZIucXiBU-MfQ4RZ-34">
          <mxGeometry width="160" relative="1" as="geometry">
            <mxPoint x="1770" y="1415" as="sourcePoint" />
            <mxPoint x="1930" y="1415" as="targetPoint" />
          </mxGeometry>
        </mxCell>
        <mxCell id="wU6vpZIucXiBU-MfQ4RZ-36" value="&amp;lt;&amp;lt;include&amp;gt;&amp;gt;" style="edgeStyle=none;html=1;endArrow=open;verticalAlign=bottom;dashed=1;labelBackgroundColor=none;rounded=0;entryX=0;entryY=0.5;entryDx=0;entryDy=0;" edge="1" parent="1" source="wU6vpZIucXiBU-MfQ4RZ-34" target="wU6vpZIucXiBU-MfQ4RZ-31">
          <mxGeometry width="160" relative="1" as="geometry">
            <mxPoint x="1770" y="1415" as="sourcePoint" />
            <mxPoint x="1930" y="1415" as="targetPoint" />
          </mxGeometry>
        </mxCell>
        <mxCell id="wU6vpZIucXiBU-MfQ4RZ-37" value="&amp;lt;&amp;lt;include&amp;gt;&amp;gt;" style="edgeStyle=none;html=1;endArrow=open;verticalAlign=bottom;dashed=1;labelBackgroundColor=none;rounded=0;exitX=1;exitY=1;exitDx=0;exitDy=0;entryX=0.038;entryY=0.613;entryDx=0;entryDy=0;entryPerimeter=0;" edge="1" parent="1" source="wU6vpZIucXiBU-MfQ4RZ-34" target="wU6vpZIucXiBU-MfQ4RZ-33">
          <mxGeometry width="160" relative="1" as="geometry">
            <mxPoint x="1770" y="1415" as="sourcePoint" />
            <mxPoint x="1930" y="1415" as="targetPoint" />
          </mxGeometry>
        </mxCell>
        <mxCell id="wU6vpZIucXiBU-MfQ4RZ-38" value="&lt;span style=&quot;font-size: 16px;&quot;&gt;Gerer profil&lt;/span&gt;" style="ellipse;whiteSpace=wrap;html=1;align=center;fillColor=#dae8fc;gradientColor=#7ea6e0;strokeColor=#6c8ebf;" vertex="1" parent="1">
          <mxGeometry x="1395" y="1380" width="230" height="40" as="geometry" />
        </mxCell>
        <mxCell id="wU6vpZIucXiBU-MfQ4RZ-39" value="" style="edgeStyle=none;html=1;endArrow=none;verticalAlign=bottom;rounded=0;exitX=1;exitY=0.3333333333333333;exitDx=0;exitDy=0;exitPerimeter=0;entryX=0;entryY=0.5;entryDx=0;entryDy=0;" edge="1" parent="1" source="wU6vpZIucXiBU-MfQ4RZ-32">
          <mxGeometry width="160" relative="1" as="geometry">
            <mxPoint x="1790" y="1385" as="sourcePoint" />
            <mxPoint x="1400" y="1400" as="targetPoint" />
          </mxGeometry>
        </mxCell>
        <mxCell id="wU6vpZIucXiBU-MfQ4RZ-40" style="edgeStyle=orthogonalEdgeStyle;rounded=0;orthogonalLoop=1;jettySize=auto;html=1;exitX=0.5;exitY=1;exitDx=0;exitDy=0;" edge="1" parent="1">
          <mxGeometry relative="1" as="geometry">
            <mxPoint x="1700" y="1044" as="sourcePoint" />
            <mxPoint x="1700" y="1044" as="targetPoint" />
          </mxGeometry>
        </mxCell>
        <mxCell id="wU6vpZIucXiBU-MfQ4RZ-41" value="&lt;font style=&quot;font-size: 18px;&quot;&gt;Mettre a jour le stock&lt;/font&gt;" style="ellipse;whiteSpace=wrap;html=1;align=center;fillColor=#dae8fc;gradientColor=#7ea6e0;strokeColor=#6c8ebf;" vertex="1" parent="1">
          <mxGeometry x="1980" y="1290" width="230" height="50" as="geometry" />
        </mxCell>
        <mxCell id="wU6vpZIucXiBU-MfQ4RZ-42" value="" style="edgeStyle=none;html=1;endArrow=none;verticalAlign=bottom;rounded=0;exitX=1;exitY=0.5;exitDx=0;exitDy=0;" edge="1" parent="1" source="wU6vpZIucXiBU-MfQ4RZ-41">
          <mxGeometry width="160" relative="1" as="geometry">
            <mxPoint x="1720" y="1134" as="sourcePoint" />
            <mxPoint x="2350" y="1045.1702127659576" as="targetPoint" />
          </mxGeometry>
        </mxCell>
        <mxCell id="wU6vpZIucXiBU-MfQ4RZ-43" value="" style="edgeStyle=none;html=1;endArrow=block;endFill=0;endSize=12;verticalAlign=bottom;rounded=0;entryX=0.96;entryY=0.596;entryDx=0;entryDy=0;entryPerimeter=0;exitX=0.5;exitY=1;exitDx=0;exitDy=0;" edge="1" parent="1" source="wU6vpZIucXiBU-MfQ4RZ-11" target="wU6vpZIucXiBU-MfQ4RZ-9">
          <mxGeometry width="160" relative="1" as="geometry">
            <mxPoint x="1730" y="720" as="sourcePoint" />
            <mxPoint x="1890" y="720" as="targetPoint" />
          </mxGeometry>
        </mxCell>
        <mxCell id="wU6vpZIucXiBU-MfQ4RZ-44" value="&amp;lt;&amp;lt;include&amp;gt;&amp;gt;" style="edgeStyle=none;html=1;endArrow=open;verticalAlign=bottom;dashed=1;labelBackgroundColor=none;rounded=0;entryX=0.5;entryY=1;entryDx=0;entryDy=0;exitX=0.5;exitY=0;exitDx=0;exitDy=0;" edge="1" parent="1" source="wU6vpZIucXiBU-MfQ4RZ-41" target="wU6vpZIucXiBU-MfQ4RZ-12">
          <mxGeometry width="160" relative="1" as="geometry">
            <mxPoint x="1740" y="1174" as="sourcePoint" />
            <mxPoint x="1900" y="1174" as="targetPoint" />
          </mxGeometry>
        </mxCell>
        <mxCell id="wU6vpZIucXiBU-MfQ4RZ-45" value="&lt;table&gt;&lt;tbody&gt;&lt;tr&gt;&lt;td&gt;&lt;font style=&quot;font-size: 16px;&quot;&gt;Générer un Code Sécurisé&amp;nbsp;&lt;/font&gt;&lt;table&gt;&lt;tbody&gt;&lt;tr&gt;&lt;/tr&gt;&lt;/tbody&gt;&lt;/table&gt;&lt;/td&gt;&lt;/tr&gt;&lt;/tbody&gt;&lt;/table&gt;" style="ellipse;whiteSpace=wrap;html=1;align=center;fillColor=#dae8fc;strokeColor=#6c8ebf;" vertex="1" parent="1">
          <mxGeometry x="1820" y="430" width="330" height="40" as="geometry" />
        </mxCell>
        <mxCell id="wU6vpZIucXiBU-MfQ4RZ-46" value="&amp;lt;&amp;lt;include&amp;gt;&amp;gt;" style="edgeStyle=none;html=1;endArrow=open;verticalAlign=bottom;dashed=1;labelBackgroundColor=none;rounded=0;entryX=0.5;entryY=0;entryDx=0;entryDy=0;" edge="1" parent="1" source="wU6vpZIucXiBU-MfQ4RZ-45" target="wU6vpZIucXiBU-MfQ4RZ-9">
          <mxGeometry width="160" relative="1" as="geometry">
            <mxPoint x="1570" y="720" as="sourcePoint" />
            <mxPoint x="1730" y="720" as="targetPoint" />
          </mxGeometry>
        </mxCell>
        <mxCell id="wU6vpZIucXiBU-MfQ4RZ-47" value="&lt;br&gt;&lt;font style=&quot;font-size: 17px;&quot;&gt;Recherche pharmacie&lt;br&gt;&lt;/font&gt;" style="ellipse;whiteSpace=wrap;html=1;align=center;fillColor=#dae8fc;strokeColor=#6c8ebf;" vertex="1" parent="1">
          <mxGeometry x="1820" y="810" width="380" height="40" as="geometry" />
        </mxCell>
        <mxCell id="wU6vpZIucXiBU-MfQ4RZ-48" value="" style="edgeStyle=none;html=1;endArrow=none;verticalAlign=bottom;rounded=0;entryX=1;entryY=0.5;entryDx=0;entryDy=0;exitX=0;exitY=1;exitDx=0;exitDy=0;exitPerimeter=0;" edge="1" parent="1" source="wU6vpZIucXiBU-MfQ4RZ-5" target="wU6vpZIucXiBU-MfQ4RZ-47">
          <mxGeometry width="160" relative="1" as="geometry">
            <mxPoint x="2390" y="760" as="sourcePoint" />
            <mxPoint x="2090" y="780" as="targetPoint" />
          </mxGeometry>
        </mxCell>
        <mxCell id="wU6vpZIucXiBU-MfQ4RZ-49" style="edgeStyle=orthogonalEdgeStyle;rounded=0;orthogonalLoop=1;jettySize=auto;html=1;exitX=0.5;exitY=1;exitDx=0;exitDy=0;" edge="1" parent="1">
          <mxGeometry relative="1" as="geometry">
            <mxPoint x="1700" y="1044" as="sourcePoint" />
            <mxPoint x="1700" y="1044" as="targetPoint" />
          </mxGeometry>
        </mxCell>
        <mxCell id="wU6vpZIucXiBU-MfQ4RZ-50" value="&lt;br&gt;&lt;font style=&quot;&quot;&gt;&lt;font style=&quot;font-size: 19px;&quot;&gt;Valider le code&amp;nbsp;&lt;/font&gt;&lt;br&gt;&lt;/font&gt;" style="ellipse;whiteSpace=wrap;html=1;align=center;fillColor=#dae8fc;strokeColor=#6c8ebf;" vertex="1" parent="1">
          <mxGeometry x="1880" y="880" width="315" height="40" as="geometry" />
        </mxCell>
        <mxCell id="wU6vpZIucXiBU-MfQ4RZ-51" value="" style="edgeStyle=none;html=1;endArrow=none;verticalAlign=bottom;rounded=0;entryX=1;entryY=1;entryDx=0;entryDy=0;entryPerimeter=0;exitX=1;exitY=0;exitDx=0;exitDy=0;" edge="1" parent="1" source="wU6vpZIucXiBU-MfQ4RZ-50" target="wU6vpZIucXiBU-MfQ4RZ-5">
          <mxGeometry width="160" relative="1" as="geometry">
            <mxPoint x="1700" y="1020" as="sourcePoint" />
            <mxPoint x="1860" y="1020" as="targetPoint" />
          </mxGeometry>
        </mxCell>
        <mxCell id="wU6vpZIucXiBU-MfQ4RZ-52" value="" style="edgeStyle=none;html=1;endArrow=none;verticalAlign=bottom;rounded=0;entryX=0;entryY=0.3333333333333333;entryDx=0;entryDy=0;entryPerimeter=0;exitX=1;exitY=1;exitDx=0;exitDy=0;" edge="1" parent="1" source="wU6vpZIucXiBU-MfQ4RZ-50" target="wU6vpZIucXiBU-MfQ4RZ-4">
          <mxGeometry width="160" relative="1" as="geometry">
            <mxPoint x="1700" y="1070" as="sourcePoint" />
            <mxPoint x="1860" y="1070" as="targetPoint" />
          </mxGeometry>
        </mxCell>
        <mxCell id="wU6vpZIucXiBU-MfQ4RZ-53" value="&amp;lt;&amp;lt;include&amp;gt;&amp;gt;" style="edgeStyle=none;html=1;endArrow=open;verticalAlign=bottom;dashed=1;labelBackgroundColor=none;rounded=0;" edge="1" parent="1" source="wU6vpZIucXiBU-MfQ4RZ-50" target="wU6vpZIucXiBU-MfQ4RZ-13">
          <mxGeometry width="160" relative="1" as="geometry">
            <mxPoint x="1650" y="1030" as="sourcePoint" />
            <mxPoint x="1810" y="1030" as="targetPoint" />
          </mxGeometry>
        </mxCell>
        <mxCell id="wU6vpZIucXiBU-MfQ4RZ-54" value="&lt;font style=&quot;font-size: 18px;&quot;&gt;Gérer les Notifications&lt;/font&gt;" style="ellipse;whiteSpace=wrap;html=1;align=center;fillColor=#dae8fc;gradientColor=#7ea6e0;strokeColor=#6c8ebf;" vertex="1" parent="1">
          <mxGeometry x="1320" y="950" width="230" height="50" as="geometry" />
        </mxCell>
        <mxCell id="wU6vpZIucXiBU-MfQ4RZ-55" value="&lt;font style=&quot;font-size: 17px;&quot;&gt;Notifier patient&lt;/font&gt;" style="ellipse;whiteSpace=wrap;html=1;align=center;fillColor=#dae8fc;strokeColor=#6c8ebf;" vertex="1" parent="1">
          <mxGeometry x="1340" y="767.5" width="280" height="40" as="geometry" />
        </mxCell>
        <mxCell id="wU6vpZIucXiBU-MfQ4RZ-56" value="&lt;table&gt;&lt;tbody&gt;&lt;tr&gt;&lt;td&gt;&lt;table&gt;&lt;tbody&gt;&lt;tr&gt;&lt;td&gt;&lt;font style=&quot;font-size: 17px;&quot;&gt;Confirmer la délivrance des médicaments&lt;/font&gt;&lt;/td&gt;&lt;/tr&gt;&lt;/tbody&gt;&lt;/table&gt;&lt;table&gt;&lt;tbody&gt;&lt;tr&gt;&lt;td&gt;&lt;/td&gt;&lt;/tr&gt;&lt;/tbody&gt;&lt;/table&gt;&lt;table&gt;&lt;tbody&gt;&lt;tr&gt;&lt;/tr&gt;&lt;/tbody&gt;&lt;/table&gt;&lt;/td&gt;&lt;/tr&gt;&lt;/tbody&gt;&lt;/table&gt;" style="ellipse;whiteSpace=wrap;html=1;align=center;fillColor=#dae8fc;strokeColor=#6c8ebf;" vertex="1" parent="1">
          <mxGeometry x="1590" y="972" width="360" height="40" as="geometry" />
        </mxCell>
        <mxCell id="wU6vpZIucXiBU-MfQ4RZ-57" value="&lt;table&gt;&lt;tbody&gt;&lt;tr&gt;&lt;td&gt;&lt;table&gt;&lt;tbody&gt;&lt;tr&gt;&lt;td&gt;&lt;font style=&quot;font-size: 16px;&quot;&gt;Envoyer rappels de prise&lt;/font&gt;&lt;/td&gt;&lt;/tr&gt;&lt;/tbody&gt;&lt;/table&gt;&lt;table&gt;&lt;tbody&gt;&lt;tr&gt;&lt;td&gt;&lt;/td&gt;&lt;/tr&gt;&lt;/tbody&gt;&lt;/table&gt;&lt;table&gt;&lt;tbody&gt;&lt;tr&gt;&lt;/tr&gt;&lt;/tbody&gt;&lt;/table&gt;&lt;/td&gt;&lt;/tr&gt;&lt;/tbody&gt;&lt;/table&gt;" style="ellipse;whiteSpace=wrap;html=1;align=center;fillColor=#dae8fc;strokeColor=#6c8ebf;" vertex="1" parent="1">
          <mxGeometry x="1395" y="1022" width="280" height="40" as="geometry" />
        </mxCell>
        <mxCell id="wU6vpZIucXiBU-MfQ4RZ-58" style="edgeStyle=orthogonalEdgeStyle;rounded=0;orthogonalLoop=1;jettySize=auto;html=1;exitX=0.5;exitY=1;exitDx=0;exitDy=0;" edge="1" parent="1">
          <mxGeometry relative="1" as="geometry">
            <mxPoint x="1780" y="1132" as="sourcePoint" />
            <mxPoint x="1780" y="1132" as="targetPoint" />
          </mxGeometry>
        </mxCell>
        <mxCell id="wU6vpZIucXiBU-MfQ4RZ-59" value="&lt;table&gt;&lt;tbody&gt;&lt;tr&gt;&lt;td&gt;&lt;table&gt;&lt;tbody&gt;&lt;tr&gt;&lt;td&gt;&lt;font style=&quot;font-size: 20px;&quot;&gt;&amp;nbsp;Alerter stock bas&lt;/font&gt;&lt;/td&gt;&lt;/tr&gt;&lt;/tbody&gt;&lt;/table&gt;&lt;table&gt;&lt;tbody&gt;&lt;tr&gt;&lt;td&gt;&lt;/td&gt;&lt;/tr&gt;&lt;/tbody&gt;&lt;/table&gt;&lt;table&gt;&lt;tbody&gt;&lt;tr&gt;&lt;/tr&gt;&lt;/tbody&gt;&lt;/table&gt;&lt;/td&gt;&lt;/tr&gt;&lt;/tbody&gt;&lt;/table&gt;" style="ellipse;whiteSpace=wrap;html=1;align=center;fillColor=#dae8fc;strokeColor=#6c8ebf;" vertex="1" parent="1">
          <mxGeometry x="1620" y="1295" width="280" height="40" as="geometry" />
        </mxCell>
        <mxCell id="wU6vpZIucXiBU-MfQ4RZ-60" value="&amp;lt;&amp;lt;include&amp;gt;&amp;gt;" style="edgeStyle=none;html=1;endArrow=open;verticalAlign=bottom;dashed=1;labelBackgroundColor=none;rounded=0;exitX=0.5;exitY=1;exitDx=0;exitDy=0;" edge="1" parent="1" source="wU6vpZIucXiBU-MfQ4RZ-6" target="wU6vpZIucXiBU-MfQ4RZ-55">
          <mxGeometry width="160" relative="1" as="geometry">
            <mxPoint x="1870" y="900" as="sourcePoint" />
            <mxPoint x="2030" y="900" as="targetPoint" />
          </mxGeometry>
        </mxCell>
      </root>
    </mxGraphModel>
  </diagram>
</mxfile>
